<?xml version="1.0" standalone="no"?>
<!DOCTYPE svg PUBLIC "-//W3C//DTD SVG 20010904//EN"
 "http://www.w3.org/TR/2001/REC-SVG-20010904/DTD/svg10.dtd">
<svg version="1.0" xmlns="http://www.w3.org/2000/svg"
 width="256.000000pt" height="256.000000pt" viewBox="0 0 256.000000 256.000000"
 preserveAspectRatio="xMidYMid meet">
<metadata>
Created by potrace 1.11, written by Peter Selinger 2001-2013
</metadata>
<g transform="translate(0.000000,256.000000) scale(0.100000,-0.100000)"
fill="#000000" stroke="none">
<path d="M1096 2394 c-58 -15 -53 -14 -68 -19 -60 -20 -146 -48 -158 -50 -65
-14 -162 -64 -215 -111 -16 -14 -61 -47 -100 -72 -119 -80 -244 -219 -269
-300 -4 -13 -27 -65 -51 -117 -74 -159 -98 -265 -99 -440 0 -141 28 -251 96
-365 11 -19 21 -41 23 -50 6 -29 53 -125 71 -145 11 -12 44 -50 74 -85 30 -36
58 -67 62 -70 3 -3 52 -47 107 -98 130 -121 164 -148 233 -183 90 -45 183 -74
277 -84 30 -3 58 -8 63 -11 4 -3 59 -6 122 -8 121 -3 264 13 341 40 26 8 57
17 68 20 35 6 180 77 242 117 133 87 285 280 345 437 54 145 111 321 115 359
28 252 24 316 -25 476 -27 86 -128 282 -182 352 -110 143 -264 258 -393 292
-22 6 -65 22 -94 37 -54 26 -187 64 -223 64 -11 0 -29 6 -41 13 -29 16 -259
17 -321 1z"/>
</g>
</svg>
